<svg width="18" height="18" viewBox="0 0 18 18" fill="none" xmlns="http://www.w3.org/2000/svg">
<path fill-rule="evenodd" clip-rule="evenodd" d="M11.7938 16.5V10.6912H13.7438L14.0355 8.42775H11.793V6.9825C11.793 6.327 11.9753 5.88 12.9158 5.88H14.1143V3.855C13.5338 3.79323 12.9505 3.76319 12.3668 3.765C10.6388 3.765 9.456 4.82025 9.456 6.7575V8.42775H7.5V10.6912H9.45525V16.5H2.328C1.8705 16.5 1.5 16.1295 1.5 15.672V2.328C1.5 1.8705 1.8705 1.5 2.328 1.5H15.672C16.1295 1.5 16.5 1.8705 16.5 2.328V15.672C16.5 16.1295 16.1295 16.5 15.672 16.5H11.7938Z" fill="#111111"/>
</svg>
