<svg width="18" height="18" viewBox="0 0 18 18" fill="none" xmlns="http://www.w3.org/2000/svg">
<path d="M15.3281 1.75781H2.95312C2.65476 1.75781 2.36861 1.87634 2.15763 2.08732C1.94665 2.2983 1.82813 2.58444 1.82812 2.88281V15.2578C1.82813 15.5562 1.94665 15.8423 2.15763 16.0533C2.36861 16.2643 2.65476 16.3828 2.95312 16.3828H15.3281C15.6265 16.3828 15.9126 16.2643 16.1236 16.0533C16.3346 15.8423 16.4531 15.5562 16.4531 15.2578V2.88281C16.4531 2.58444 16.3346 2.2983 16.1236 2.08732C15.9126 1.87634 15.6265 1.75781 15.3281 1.75781ZM6.31125 15.0638H4.06125V7.18875H6.31125V15.0638ZM5.18625 6.345C4.40775 6.345 3.78 5.71612 3.78 4.93875C3.78 4.16137 4.40775 3.5325 5.18625 3.5325C5.96475 3.5325 6.5925 4.1625 6.5925 4.93875C6.5925 5.715 5.96362 6.345 5.18625 6.345ZM14.1862 15.0638H11.9362V10.2825C11.9362 10.0575 11.709 9.68963 11.5492 9.60075C11.3383 9.48263 10.8405 9.47137 10.6127 9.58162L9.68569 10.0277V15.0643H7.43569V7.18931H9.68569V7.53525C10.5756 7.12856 11.8119 7.1685 12.6501 7.63875C13.5388 8.13656 14.1857 9.24919 14.1857 10.2825L14.1862 15.0638Z" fill="#111111"/>
</svg>
