<svg width="20" height="20" viewBox="0 0 20 20" fill="none" xmlns="http://www.w3.org/2000/svg">
<g id="location icon">
<mask id="mask0_11_680" style="mask-type:alpha" maskUnits="userSpaceOnUse" x="0" y="0" width="20" height="20">
<rect id="Bounding box" width="20" height="20" fill="#D9D9D9"/>
</mask>
<g mask="url(#mask0_11_680)">
<path id="location_on" d="M10.0002 9.99984C10.4585 9.99984 10.8509 9.83664 11.1772 9.51025C11.5036 9.18387 11.6668 8.7915 11.6668 8.33317C11.6668 7.87484 11.5036 7.48248 11.1772 7.15609C10.8509 6.8297 10.4585 6.6665 10.0002 6.6665C9.54183 6.6665 9.14947 6.8297 8.82308 7.15609C8.49669 7.48248 8.3335 7.87484 8.3335 8.33317C8.3335 8.7915 8.49669 9.18387 8.82308 9.51025C9.14947 9.83664 9.54183 9.99984 10.0002 9.99984ZM10.0002 18.3332C7.76405 16.4304 6.09391 14.663 4.98975 13.0311C3.88558 11.3991 3.3335 9.88873 3.3335 8.49984C3.3335 6.4165 4.00363 4.75678 5.34391 3.52067C6.68419 2.28456 8.23627 1.6665 10.0002 1.6665C11.7641 1.6665 13.3161 2.28456 14.6564 3.52067C15.9967 4.75678 16.6668 6.4165 16.6668 8.49984C16.6668 9.88873 16.1147 11.3991 15.0106 13.0311C13.9064 14.663 12.2363 16.4304 10.0002 18.3332Z" fill="#1C1B1F"/>
</g>
</g>
</svg>
