<svg width="20" height="20" viewBox="0 0 20 20" fill="none" xmlns="http://www.w3.org/2000/svg">
<g id="mail icon">
<mask id="mask0_11_675" style="mask-type:alpha" maskUnits="userSpaceOnUse" x="0" y="0" width="20" height="20">
<rect id="Bounding box" width="20" height="20" fill="#D9D9D9"/>
</mask>
<g mask="url(#mask0_11_675)">
<path id="mail" d="M3.33317 16.6668C2.87484 16.6668 2.48248 16.5036 2.15609 16.1772C1.8297 15.8509 1.6665 15.4585 1.6665 15.0002V5.00016C1.6665 4.54183 1.8297 4.14947 2.15609 3.82308C2.48248 3.49669 2.87484 3.3335 3.33317 3.3335H16.6665C17.1248 3.3335 17.5172 3.49669 17.8436 3.82308C18.17 4.14947 18.3332 4.54183 18.3332 5.00016V15.0002C18.3332 15.4585 18.17 15.8509 17.8436 16.1772C17.5172 16.5036 17.1248 16.6668 16.6665 16.6668H3.33317ZM9.99984 10.8335L16.6665 6.66683V5.00016L9.99984 9.16683L3.33317 5.00016V6.66683L9.99984 10.8335Z" fill="#1C1B1F"/>
</g>
</g>
</svg>
