<svg width="18" height="18" viewBox="0 0 18 18" fill="none" xmlns="http://www.w3.org/2000/svg">
<path d="M9 16.5C7.9625 16.5 6.9875 16.303 6.075 15.909C5.1625 15.515 4.36875 14.9808 3.69375 14.3063C3.01875 13.6318 2.4845 12.838 2.091 11.925C1.6975 11.012 1.5005 10.037 1.5 9C1.4995 7.963 1.6965 6.988 2.091 6.075C2.4855 5.162 3.01975 4.36825 3.69375 3.69375C4.36775 3.01925 5.1615 2.485 6.075 2.091C6.9885 1.697 7.9635 1.5 9 1.5C10.0365 1.5 11.0115 1.697 11.925 2.091C12.8385 2.485 13.6323 3.01925 14.3063 3.69375C14.9803 4.36825 15.5148 5.162 15.9098 6.075C16.3048 6.988 16.5015 7.963 16.5 9C16.4985 10.037 16.3015 11.012 15.909 11.925C15.5165 12.838 14.9823 13.6318 14.3063 14.3063C13.6303 14.9808 12.8365 15.5152 11.925 15.9097C11.0135 16.3042 10.0385 16.501 9 16.5ZM9 15C10.675 15 12.0938 14.4187 13.2563 13.2562C14.4187 12.0937 15 10.675 15 9C15 8.9125 14.997 8.82175 14.991 8.72775C14.985 8.63375 14.9818 8.55575 14.9813 8.49375C14.9188 8.85625 14.75 9.15625 14.475 9.39375C14.2 9.63125 13.875 9.75 13.5 9.75H12C11.5875 9.75 11.2345 9.60325 10.941 9.30975C10.6475 9.01625 10.5005 8.663 10.5 8.25V7.5H7.5V6C7.5 5.5875 7.647 5.2345 7.941 4.941C8.235 4.6475 8.588 4.5005 9 4.5H9.75C9.75 4.2125 9.82825 3.9595 9.98475 3.741C10.1413 3.5225 10.3318 3.34425 10.5563 3.20625C10.3063 3.14375 10.0533 3.09375 9.79725 3.05625C9.54125 3.01875 9.2755 3 9 3C7.325 3 5.90625 3.58125 4.74375 4.74375C3.58125 5.90625 3 7.325 3 9H6.75C7.575 9 8.28125 9.29375 8.86875 9.88125C9.45625 10.4688 9.75 11.175 9.75 12V12.75H7.5V14.8125C7.75 14.875 7.997 14.922 8.241 14.9535C8.485 14.985 8.738 15.0005 9 15Z" fill="#111111"/>
</svg>
