<svg width="18" height="18" viewBox="0 0 18 18" fill="none" xmlns="http://www.w3.org/2000/svg">
<g clip-path="url(#clip0_11_747)">
<path d="M13.7812 0H4.21875C1.8888 0 0 1.8888 0 4.21875V13.7812C0 16.1112 1.8888 18 4.21875 18H13.7812C16.1112 18 18 16.1112 18 13.7812V4.21875C18 1.8888 16.1112 0 13.7812 0Z" fill="white"/>
<path d="M13.7812 0H4.21875C1.8888 0 0 1.8888 0 4.21875V13.7812C0 16.1112 1.8888 18 4.21875 18H13.7812C16.1112 18 18 16.1112 18 13.7812V4.21875C18 1.8888 16.1112 0 13.7812 0Z" fill="#1C1B1F"/>
<path d="M14.0324 6.42733C14.0401 6.53892 14.0401 6.6505 14.0401 6.76314C14.0401 10.1942 11.4282 14.1512 6.65205 14.1512V14.1491C5.24111 14.1512 3.85938 13.7471 2.67188 12.9851C2.87705 13.0098 3.0832 13.0221 3.28992 13.0226C4.45936 13.0235 5.59516 12.6313 6.5148 11.9089C5.97296 11.8987 5.44786 11.7194 5.01292 11.3961C4.57797 11.0728 4.25493 10.6216 4.08895 10.1057C4.47798 10.1807 4.87903 10.1654 5.2612 10.061C4.04986 9.81625 3.17834 8.75193 3.17834 7.51584V7.48293C3.53945 7.68407 3.9436 7.79553 4.35677 7.80792C3.21588 7.04538 2.86418 5.52754 3.5531 4.34081C4.20499 5.143 5.01834 5.79909 5.94032 6.26646C6.86229 6.73382 7.87227 7.00201 8.90466 7.05361C8.80172 6.61052 8.81693 6.14818 8.94875 5.71282C9.08056 5.27746 9.32438 4.88434 9.6558 4.57277C10.7016 3.58966 12.3465 3.64008 13.3296 4.68534C13.911 4.57054 14.4687 4.35736 14.9785 4.05499C14.7846 4.65621 14.379 5.16654 13.837 5.49105C14.3517 5.43041 14.8544 5.29262 15.3281 5.08232C14.9797 5.60418 14.5409 6.05961 14.0324 6.42733Z" fill="white"/>
</g>
<defs>
<clipPath id="clip0_11_747">
<rect width="18" height="18" fill="white"/>
</clipPath>
</defs>
</svg>
